<svg xmlns="http://www.w3.org/2000/svg" style="display:none">
  <!-- Conjunto de ícones proprio do SGLK: traco de 2px, pontas arredondadas, grade 24x24, sem preenchimento. -->
  <symbol id="icon-busca" viewBox="0 0 24 24" fill="none" stroke="currentColor" stroke-width="2" stroke-linecap="round" stroke-linejoin="round">
    <circle cx="11" cy="11" r="7"/>
    <line x1="21" y1="21" x2="16.2" y2="16.2"/>
  </symbol>
  <symbol id="icon-filtro" viewBox="0 0 24 24" fill="none" stroke="currentColor" stroke-width="2" stroke-linecap="round" stroke-linejoin="round">
    <line x1="4" y1="6" x2="20" y2="6"/>
    <line x1="4" y1="12" x2="20" y2="12"/>
    <line x1="4" y1="18" x2="20" y2="18"/>
    <circle cx="9" cy="6" r="2" fill="currentColor" stroke="none"/>
    <circle cx="16" cy="12" r="2" fill="currentColor" stroke="none"/>
    <circle cx="10" cy="18" r="2" fill="currentColor" stroke="none"/>
  </symbol>
  <symbol id="icon-local" viewBox="0 0 24 24" fill="none" stroke="currentColor" stroke-width="2" stroke-linecap="round" stroke-linejoin="round">
    <path d="M12 21s-7-6.3-7-11.5A7 7 0 0 1 19 9.5C19 14.7 12 21 12 21Z"/>
    <circle cx="12" cy="9.5" r="2.3"/>
  </symbol>
  <symbol id="icon-cama" viewBox="0 0 24 24" fill="none" stroke="currentColor" stroke-width="2" stroke-linecap="round" stroke-linejoin="round">
    <path d="M3 18v-6a2 2 0 0 1 2-2h14a2 2 0 0 1 2 2v6"/>
    <path d="M3 18v2M21 18v2"/>
    <path d="M3 13v-4a1 1 0 0 1 1-1h6a1 1 0 0 1 1 1v4"/>
    <path d="M13 13V9a1 1 0 0 1 1-1h5a2 2 0 0 1 2 2v3"/>
  </symbol>
  <symbol id="icon-banheiro" viewBox="0 0 24 24" fill="none" stroke="currentColor" stroke-width="2" stroke-linecap="round" stroke-linejoin="round">
    <path d="M6 8V5a2 2 0 0 1 3.2-1.6"/>
    <path d="M4 8h16"/>
    <path d="M5 8l1 9a2 2 0 0 0 2 1.8h8a2 2 0 0 0 2-1.8l1-9"/>
    <line x1="9" y1="21" x2="9" y2="18.8"/>
    <line x1="15" y1="21" x2="15" y2="18.8"/>
  </symbol>
  <symbol id="icon-area" viewBox="0 0 24 24" fill="none" stroke="currentColor" stroke-width="2" stroke-linecap="round" stroke-linejoin="round">
    <polyline points="15 4 20 4 20 9"/>
    <polyline points="9 20 4 20 4 15"/>
    <line x1="20" y1="4" x2="14" y2="10"/>
    <line x1="4" y1="20" x2="10" y2="14"/>
  </symbol>
  <symbol id="icon-escudo" viewBox="0 0 24 24" fill="none" stroke="currentColor" stroke-width="2" stroke-linecap="round" stroke-linejoin="round">
    <path d="M12 3l7 3v6c0 4.5-3 7.7-7 9-4-1.3-7-4.5-7-9V6l7-3Z"/>
    <polyline points="9 12 11 14 15.5 9.5"/>
  </symbol>
  <symbol id="icon-raio" viewBox="0 0 24 24" fill="none" stroke="currentColor" stroke-width="2" stroke-linecap="round" stroke-linejoin="round">
    <polygon points="13 2 4 14 11 14 10 22 20 9 13 9 13 2"/>
  </symbol>
  <symbol id="icon-check" viewBox="0 0 24 24" fill="none" stroke="currentColor" stroke-width="2" stroke-linecap="round" stroke-linejoin="round">
    <polyline points="5 12.5 10 17.5 19 7"/>
  </symbol>
  <symbol id="icon-chevron" viewBox="0 0 24 24" fill="none" stroke="currentColor" stroke-width="2" stroke-linecap="round" stroke-linejoin="round">
    <polyline points="6 9 12 15 18 9"/>
  </symbol>
  <symbol id="icon-fechar" viewBox="0 0 24 24" fill="none" stroke="currentColor" stroke-width="2" stroke-linecap="round" stroke-linejoin="round">
    <line x1="6" y1="6" x2="18" y2="18"/>
    <line x1="18" y1="6" x2="6" y2="18"/>
  </symbol>
  <symbol id="icon-menu" viewBox="0 0 24 24" fill="none" stroke="currentColor" stroke-width="2" stroke-linecap="round" stroke-linejoin="round">
    <line x1="4" y1="7" x2="20" y2="7"/>
    <line x1="4" y1="12" x2="20" y2="12"/>
    <line x1="4" y1="17" x2="20" y2="17"/>
  </symbol>
  <symbol id="icon-seta" viewBox="0 0 24 24" fill="none" stroke="currentColor" stroke-width="2" stroke-linecap="round" stroke-linejoin="round">
    <line x1="5" y1="12" x2="19" y2="12"/>
    <polyline points="13 6 19 12 13 18"/>
  </symbol>
  <symbol id="icon-casa" viewBox="0 0 24 24" fill="none" stroke="currentColor" stroke-width="2" stroke-linecap="round" stroke-linejoin="round">
    <path d="M4 11.5 12 4l8 7.5"/>
    <path d="M6 10v9a1 1 0 0 0 1 1h10a1 1 0 0 0 1-1v-9"/>
    <path d="M10 20v-5h4v5"/>
  </symbol>
  <symbol id="icon-porta" viewBox="0 0 24 24" fill="none" stroke="currentColor" stroke-width="2" stroke-linecap="round" stroke-linejoin="round">
    <path d="M6 21V5a1 1 0 0 1 1-1h6l5 3v14"/>
    <line x1="4" y1="21" x2="20" y2="21"/>
    <circle cx="13.2" cy="13" r="0.9" fill="currentColor" stroke="none"/>
  </symbol>
  <symbol id="icon-atualizar" viewBox="0 0 24 24" fill="none" stroke="currentColor" stroke-width="2" stroke-linecap="round" stroke-linejoin="round">
    <path d="M3 12a9 9 0 0 1 15.4-6.4L21 8"/>
    <polyline points="21 3 21 8 16 8"/>
    <path d="M21 12a9 9 0 0 1-15.4 6.4L3 16"/>
    <polyline points="3 21 3 16 8 16"/>
  </symbol>
  <symbol id="icon-camera" viewBox="0 0 24 24" fill="none" stroke="currentColor" stroke-width="2" stroke-linecap="round" stroke-linejoin="round">
    <path d="M4 8a1 1 0 0 1 1-1h2l1.5-2h7L17 7h2a1 1 0 0 1 1 1v10a1 1 0 0 1-1 1H5a1 1 0 0 1-1-1V8Z"/>
    <circle cx="12" cy="13" r="3.2"/>
  </symbol>
  <symbol id="icon-lista" viewBox="0 0 24 24" fill="none" stroke="currentColor" stroke-width="2" stroke-linecap="round" stroke-linejoin="round">
    <circle cx="5" cy="6" r="1" fill="currentColor" stroke="none"/>
    <circle cx="5" cy="12" r="1" fill="currentColor" stroke="none"/>
    <circle cx="5" cy="18" r="1" fill="currentColor" stroke="none"/>
    <line x1="9" y1="6" x2="20" y2="6"/>
    <line x1="9" y1="12" x2="20" y2="12"/>
    <line x1="9" y1="18" x2="20" y2="18"/>
  </symbol>
  <symbol id="icon-mensagem" viewBox="0 0 24 24" fill="none" stroke="currentColor" stroke-width="2" stroke-linecap="round" stroke-linejoin="round">
    <path d="M4 5h16a1 1 0 0 1 1 1v10a1 1 0 0 1-1 1H9l-5 4v-4a1 1 0 0 1-1-1V6a1 1 0 0 1 1-1Z"/>
  </symbol>
  <symbol id="icon-email" viewBox="0 0 24 24" fill="none" stroke="currentColor" stroke-width="2" stroke-linecap="round" stroke-linejoin="round">
    <rect x="3" y="5" width="18" height="14" rx="2"/>
    <polyline points="3 7 12 13 21 7"/>
  </symbol>
  <symbol id="icon-alerta" viewBox="0 0 24 24" fill="none" stroke="currentColor" stroke-width="2" stroke-linecap="round" stroke-linejoin="round">
    <path d="M12 3.5 21.5 20h-19L12 3.5Z"/>
    <line x1="12" y1="9.5" x2="12" y2="13.5"/>
    <circle cx="12" cy="16.5" r="0.9" fill="currentColor" stroke="none"/>
  </symbol>
  <symbol id="icon-whatsapp" viewBox="0 0 24 24" fill="currentColor" stroke="none">
    <path d="M17.5 14.4c-.3-.1-1.6-.8-1.9-.9-.3-.1-.4-.1-.6.1-.2.3-.7.9-.8 1-.2.2-.3.2-.5.1-.3-.1-1.2-.4-2.2-1.4-.8-.7-1.4-1.6-1.5-1.9-.2-.3 0-.4.1-.6l.4-.4c.1-.1.2-.3.3-.4.1-.2 0-.4 0-.5s-.6-1.5-.8-2c-.2-.5-.4-.4-.6-.4h-.5c-.2 0-.5.1-.7.3-.3.3-1 1-1 2.4s1 2.8 1.2 3c.1.2 2 3 4.8 4.3.7.3 1.2.5 1.6.6.7.2 1.3.2 1.8.1.5-.1 1.6-.7 1.9-1.3.2-.6.2-1.1.2-1.2-.1-.2-.3-.2-.6-.4Z"/>
    <path d="M12 2a10 10 0 0 0-8.6 15L2 22l5.2-1.4A10 10 0 1 0 12 2Zm0 18.2c-1.6 0-3.2-.4-4.5-1.2l-.3-.2-3.1.8.8-3-.2-.3A8.2 8.2 0 1 1 12 20.2Z"/>
  </symbol>
</svg>
